<svg data-v-fde0c5aa="" xmlns="http://www.w3.org/2000/svg" viewBox="0 0 300 300" class="iconLeft"><!----><defs data-v-fde0c5aa=""><!----></defs><rect data-v-fde0c5aa="" fill="transparent" x="0" y="0" width="300px" height="300px" class="logo-background-square"></rect><defs data-v-fde0c5aa=""><!----></defs><g data-v-fde0c5aa="" id="32eaf792-6cf8-49c9-bdf5-328561d72f5c" fill="#000000" transform="matrix(1.0647543116751774,0,0,1.0647543116751774,84.68820971606964,135.98250901969902)"><path d="M10.93 9.76Q10.93 10.15 10.46 12.82L10.46 12.82Q10.15 14.55 9.98 15.62Q9.81 16.69 9.81 17.12L9.81 17.12Q9.81 17.67 9.90 18.03Q10.00 18.40 10.21 18.66L10.21 18.66Q9.49 19.19 8.72 19.19L8.72 19.19Q7.97 19.19 7.63 18.82Q7.29 18.44 7.29 17.60L7.29 17.60Q7.29 16.81 7.57 14.97L7.57 14.97L3.91 14.97Q3.63 16.58 3.63 17.12L3.63 17.12Q3.63 17.67 3.72 18.03Q3.81 18.38 4.00 18.66L4.00 18.66Q3.30 19.19 2.53 19.19L2.53 19.19Q1.78 19.19 1.44 18.82Q1.11 18.44 1.11 17.60L1.11 17.60Q1.11 16.90 1.30 15.51Q1.50 14.13 2.06 10.77L2.06 10.77L1.44 9.52Q2.77 8.67 3.85 8.67L3.85 8.67Q4.75 8.67 4.75 9.76L4.75 9.76Q4.75 10.12 4.23 13.03L4.23 13.03L4.14 13.55L7.80 13.55L8.26 10.77L7.63 9.52Q8.96 8.67 10.04 8.67L10.04 8.67Q10.93 8.67 10.93 9.76L10.93 9.76ZM20.16 17.54Q20.16 18.31 20.52 18.61L20.52 18.61Q19.82 19.18 19.05 19.18L19.05 19.18Q18.44 19.18 18.10 18.82Q17.77 18.45 17.77 17.78L17.77 17.78Q17.77 17.53 17.84 17.14L17.84 17.14L17.70 17.07Q17.26 18.06 16.51 18.62Q15.75 19.18 14.84 19.18L14.84 19.18Q14.07 19.18 13.48 18.77Q12.89 18.37 12.57 17.62Q12.25 16.87 12.25 15.89L12.25 15.89Q12.25 14.32 12.96 13.08Q13.66 11.83 14.92 11.13Q16.17 10.43 17.75 10.43L17.75 10.43Q18.35 10.43 18.94 10.54L18.94 10.54Q19.05 10.79 19.10 11.14L19.10 11.14Q19.59 10.78 20.20 10.78L20.20 10.78Q20.65 10.78 20.89 11.02Q21.13 11.26 21.13 11.70L21.13 11.70Q21.13 12.00 21.04 12.45Q20.94 12.89 20.76 13.68L20.76 13.68Q20.47 14.98 20.31 15.85Q20.16 16.72 20.16 17.54L20.16 17.54ZM15.86 17.19Q17.00 17.19 17.70 15.80Q18.41 14.41 18.73 11.52L18.73 11.52Q17.54 11.61 16.60 12.16Q15.67 12.71 15.14 13.60Q14.62 14.49 14.62 15.54L14.62 15.54Q14.62 16.32 14.95 16.76Q15.27 17.19 15.86 17.19L15.86 17.19ZM24.36 19.18Q23.65 19.18 23.32 18.80Q22.99 18.42 22.99 17.67L22.99 17.67Q22.99 17.14 23.30 15.43Q23.62 13.72 24.01 12.14L24.01 12.14L23.31 11.19Q24.29 10.44 25.09 10.44L25.09 10.44Q25.59 10.44 25.84 10.70Q26.08 10.95 26.08 11.40L26.08 11.40Q26.08 11.84 25.96 12.31Q25.83 12.77 25.59 13.37L25.59 13.37L25.73 13.44Q26.32 11.91 26.93 11.17Q27.54 10.43 28.41 10.43L28.41 10.43Q28.98 10.43 29.30 10.74Q29.62 11.05 29.62 11.59L29.62 11.59Q29.62 12.22 29.20 12.62Q28.77 13.02 28.01 13.02L28.01 13.02Q27.33 13.02 26.73 13.64Q26.12 14.27 25.76 15.32Q25.40 16.37 25.40 17.54L25.40 17.54Q25.40 18.26 25.65 18.61L25.65 18.61Q25.03 19.18 24.36 19.18L24.36 19.18ZM33.14 19.18Q31.49 19.18 30.67 18.75Q29.85 18.31 29.85 17.56L29.85 17.56Q29.85 17.23 30.04 16.90Q30.24 16.56 30.59 16.32L30.59 16.32Q30.97 17.01 31.58 17.39Q32.19 17.77 33.01 17.77L33.01 17.77Q33.68 17.77 34.22 17.49Q34.76 17.21 34.76 16.69L34.76 16.69Q34.76 16.37 34.38 16.16Q33.99 15.96 33.18 15.71L33.18 15.71Q32.30 15.43 31.72 15.17Q31.15 14.91 30.74 14.43Q30.32 13.96 30.32 13.23L30.32 13.23Q30.32 11.87 31.56 11.15Q32.79 10.43 34.69 10.43L34.69 10.43Q36.04 10.43 36.83 10.84Q37.63 11.24 37.63 11.90L37.63 11.90Q37.63 12.49 37.23 12.82Q36.82 13.15 36.22 13.15L36.22 13.15Q35.66 13.15 35.20 12.79Q34.75 12.43 34.50 11.76L34.50 11.76Q33.70 11.83 33.18 12.16Q32.66 12.49 32.66 12.95L32.66 12.95Q32.66 13.30 33.04 13.50Q33.42 13.71 34.27 13.99L34.27 13.99Q35.14 14.27 35.71 14.53Q36.29 14.78 36.69 15.27Q37.10 15.75 37.10 16.49L37.10 16.49Q37.10 17.35 36.53 17.96Q35.95 18.56 35.05 18.87Q34.15 19.18 33.14 19.18L33.14 19.18ZM40.50 19.18Q39.79 19.18 39.46 18.82Q39.13 18.45 39.13 17.74L39.13 17.74Q39.13 16.80 40.15 11.63L40.15 11.63L40.50 9.80L39.77 8.83Q40.28 8.46 40.89 8.22Q41.50 7.98 42.00 7.98L42.00 7.98Q42.55 7.98 42.78 8.19Q43.02 8.40 43.02 8.89L43.02 8.89Q43.02 9.20 42.92 9.67Q42.83 10.14 42.60 11.07L42.60 11.07Q42.55 11.34 42.39 11.97Q42.24 12.60 42.13 13.15L42.13 13.15L42.27 13.22Q43.06 11.80 44.09 11.12Q45.12 10.43 46.19 10.43L46.19 10.43Q47.07 10.43 47.49 10.86Q47.92 11.28 47.92 12.19L47.92 12.19Q47.92 12.70 47.82 13.23Q47.73 13.76 47.50 14.69L47.50 14.69Q47.28 15.60 47.15 16.25Q47.03 16.91 47.03 17.54L47.03 17.54Q47.03 17.88 47.10 18.17Q47.17 18.45 47.28 18.61L47.28 18.61Q46.66 19.18 45.99 19.18L45.99 19.18Q45.28 19.18 44.95 18.82Q44.62 18.45 44.62 17.74L44.62 17.74Q44.62 17.18 44.74 16.54Q44.87 15.90 45.11 15.02L45.11 15.02Q45.30 14.25 45.39 13.82Q45.49 13.38 45.49 13.03L45.49 13.03Q45.49 12.24 44.86 12.24L44.86 12.24Q44.20 12.24 43.41 12.94Q42.63 13.64 42.08 14.85Q41.54 16.07 41.54 17.54L41.54 17.54Q41.54 18.28 41.78 18.61L41.78 18.61Q41.19 19.18 40.50 19.18L40.50 19.18ZM57.37 17.54Q57.37 18.31 57.74 18.61L57.74 18.61Q57.04 19.18 56.27 19.18L56.27 19.18Q55.65 19.18 55.31 18.82Q54.98 18.45 54.98 17.78L54.98 17.78Q54.98 17.53 55.05 17.14L55.05 17.14L54.91 17.07Q54.47 18.06 53.72 18.62Q52.96 19.18 52.05 19.18L52.05 19.18Q51.28 19.18 50.69 18.77Q50.11 18.37 49.78 17.62Q49.46 16.87 49.46 15.89L49.46 15.89Q49.46 14.32 50.17 13.08Q50.88 11.83 52.13 11.13Q53.38 10.43 54.96 10.43L54.96 10.43Q55.57 10.43 56.15 10.54L56.15 10.54Q56.27 10.79 56.31 11.14L56.31 11.14Q56.80 10.78 57.41 10.78L57.41 10.78Q57.86 10.78 58.10 11.02Q58.34 11.26 58.34 11.70L58.34 11.70Q58.34 12.00 58.25 12.45Q58.16 12.89 57.97 13.68L57.97 13.68Q57.68 14.98 57.53 15.85Q57.37 16.72 57.37 17.54L57.37 17.54ZM53.07 17.19Q54.21 17.19 54.91 15.80Q55.62 14.41 55.94 11.52L55.94 11.52Q54.75 11.61 53.82 12.16Q52.88 12.71 52.35 13.60Q51.83 14.49 51.83 15.54L51.83 15.54Q51.83 16.32 52.16 16.76Q52.49 17.19 53.07 17.19L53.07 17.19ZM69.17 8.89Q69.17 9.18 69.07 9.74Q68.96 10.29 68.88 10.69Q68.80 11.09 68.75 11.26L68.75 11.26Q68.35 13.02 68.10 14.48Q67.86 15.93 67.86 17.35L67.86 17.35Q67.86 17.84 67.95 18.12Q68.04 18.40 68.24 18.61L68.24 18.61Q67.93 18.89 67.54 19.03Q67.14 19.18 66.77 19.18L66.77 19.18Q66.09 19.18 65.78 18.77Q65.46 18.37 65.46 17.51L65.46 17.51L65.48 17.12L65.34 17.07Q64.89 18.06 64.14 18.62Q63.39 19.18 62.50 19.18L62.50 19.18Q61.73 19.18 61.14 18.77Q60.55 18.37 60.23 17.62Q59.91 16.87 59.91 15.89L59.91 15.89Q59.91 14.42 60.61 13.26Q61.32 12.10 62.57 11.44Q63.83 10.78 65.41 10.78L65.41 10.78Q66.00 10.78 66.46 10.86L66.46 10.86L66.65 9.80L65.94 8.83Q66.46 8.46 67.05 8.22Q67.65 7.98 68.17 7.98L68.17 7.98Q68.71 7.98 68.94 8.19Q69.17 8.40 69.17 8.89L69.17 8.89ZM65.73 15.25Q65.90 14.08 66.29 11.87L66.29 11.87Q65.13 11.96 64.21 12.46Q63.29 12.96 62.78 13.77Q62.27 14.57 62.27 15.54L62.27 15.54Q62.27 16.32 62.60 16.76Q62.93 17.19 63.52 17.19L63.52 17.19Q64.16 17.19 64.76 16.66Q65.37 16.13 65.73 15.23L65.73 15.23L65.73 15.25ZM78.32 17.54Q78.32 18.31 78.68 18.61L78.68 18.61Q77.98 19.18 77.21 19.18L77.21 19.18Q76.59 19.18 76.26 18.82Q75.92 18.45 75.92 17.78L75.92 17.78Q75.92 17.53 75.99 17.14L75.99 17.14L75.85 17.07Q75.42 18.06 74.66 18.62Q73.91 19.18 73.00 19.18L73.00 19.18Q72.23 19.18 71.64 18.77Q71.05 18.37 70.73 17.62Q70.41 16.87 70.41 15.89L70.41 15.89Q70.41 14.32 71.11 13.08Q71.82 11.83 73.07 11.13Q74.33 10.43 75.91 10.43L75.91 10.43Q76.51 10.43 77.10 10.54L77.10 10.54Q77.21 10.79 77.25 11.14L77.25 11.14Q77.74 10.78 78.36 10.78L78.36 10.78Q78.81 10.78 79.04 11.02Q79.28 11.26 79.28 11.70L79.28 11.70Q79.28 12.00 79.19 12.45Q79.10 12.89 78.92 13.68L78.92 13.68Q78.62 14.98 78.47 15.85Q78.32 16.72 78.32 17.54L78.32 17.54ZM74.02 17.19Q75.15 17.19 75.86 15.80Q76.57 14.41 76.89 11.52L76.89 11.52Q75.70 11.61 74.76 12.16Q73.82 12.71 73.30 13.60Q72.77 14.49 72.77 15.54L72.77 15.54Q72.77 16.32 73.10 16.76Q73.43 17.19 74.02 17.19L74.02 17.19ZM89.24 19.18Q87.22 19.18 86.09 18.09Q84.95 17.00 84.95 15.04L84.95 15.04Q84.95 13.23 85.78 11.77Q86.60 10.32 88.03 9.49Q89.46 8.67 91.22 8.67L91.22 8.67Q92.43 8.67 93.13 9.08Q93.83 9.49 93.83 10.22L93.83 10.22Q93.83 10.82 93.40 11.21Q92.97 11.59 92.32 11.59L92.32 11.59Q91.67 11.59 91.13 11.26Q90.58 10.92 90.26 10.26L90.26 10.26Q89.47 10.57 88.85 11.29Q88.23 12.01 87.88 13.00Q87.53 13.99 87.53 15.11L87.53 15.11Q87.53 16.42 88.00 17.16Q88.47 17.89 89.32 17.89L89.32 17.89Q89.98 17.89 90.51 17.54Q91.04 17.19 91.36 16.59Q91.67 15.99 91.71 15.26L91.71 15.26Q93.30 15.26 93.30 16.44L93.30 16.44Q93.30 17.18 92.75 17.81Q92.20 18.44 91.27 18.81Q90.34 19.18 89.24 19.18L89.24 19.18ZM98.59 19.18Q97.48 19.18 96.66 18.73Q95.83 18.27 95.38 17.44Q94.93 16.60 94.93 15.50L94.93 15.50Q94.93 14.03 95.59 12.87Q96.25 11.72 97.43 11.07Q98.60 10.43 100.09 10.43L100.09 10.43Q100.62 10.43 101.12 10.54L101.12 10.54Q101.28 10.98 101.26 11.51L101.26 11.51Q100.04 11.51 99.15 12.04Q98.25 12.57 97.78 13.49Q97.30 14.41 97.30 15.55L97.30 15.55Q97.30 16.74 97.73 17.34Q98.15 17.93 98.92 17.93L98.92 17.93Q99.90 17.93 100.56 17.14Q101.22 16.35 101.37 14.99L101.37 14.99Q100.30 14.36 100.30 13.19L100.30 13.19Q100.30 12.46 100.74 11.96Q101.18 11.47 101.82 11.47L101.82 11.47Q102.58 11.47 103.03 12.08Q103.49 12.70 103.49 13.73L103.49 13.73Q103.49 15.23 102.84 16.49Q102.19 17.74 101.06 18.46Q99.93 19.18 98.59 19.18L98.59 19.18ZM106.65 19.18Q105.98 19.18 105.66 18.77Q105.35 18.37 105.35 17.51L105.35 17.51Q105.35 16.84 105.69 14.74Q106.04 12.64 106.54 9.80L106.54 9.80L105.81 8.83Q106.32 8.46 106.92 8.22Q107.53 7.98 108.04 7.98L108.04 7.98Q108.58 7.98 108.82 8.19Q109.06 8.40 109.06 8.89L109.06 8.89Q109.06 9.18 108.95 9.74Q108.85 10.30 108.64 11.28L108.64 11.28Q108.23 13.12 107.99 14.59Q107.74 16.06 107.74 17.35L107.74 17.35Q107.74 17.84 107.83 18.12Q107.93 18.40 108.12 18.61L108.12 18.61Q107.81 18.89 107.42 19.03Q107.03 19.18 106.65 19.18L106.65 19.18ZM111.99 19.18Q111.31 19.18 111.00 18.77Q110.68 18.37 110.68 17.51L110.68 17.51Q110.68 16.84 111.03 14.74Q111.37 12.64 111.87 9.80L111.87 9.80L111.15 8.83Q111.65 8.46 112.26 8.22Q112.87 7.98 113.37 7.98L113.37 7.98Q113.92 7.98 114.16 8.19Q114.39 8.40 114.39 8.89L114.39 8.89Q114.39 9.18 114.29 9.74Q114.18 10.30 113.97 11.28L113.97 11.28Q113.57 13.12 113.32 14.59Q113.08 16.06 113.08 17.35L113.08 17.35Q113.08 17.84 113.17 18.12Q113.26 18.40 113.46 18.61L113.46 18.61Q113.15 18.89 112.76 19.03Q112.36 19.18 111.99 19.18L111.99 19.18ZM123.56 12.45Q123.56 13.41 122.91 14.11Q122.25 14.81 121.00 15.19Q119.76 15.57 118.03 15.58L118.03 15.58L118.03 15.76Q118.03 16.79 118.40 17.36Q118.76 17.93 119.41 17.93L119.41 17.93Q120.19 17.93 120.69 17.39Q121.20 16.84 121.24 15.95L121.24 15.95Q121.97 15.95 122.35 16.22Q122.74 16.49 122.74 17.01L122.74 17.01Q122.74 17.60 122.26 18.10Q121.79 18.59 120.97 18.89Q120.15 19.18 119.15 19.18L119.15 19.18Q117.52 19.18 116.59 18.26Q115.67 17.33 115.67 15.71L115.67 15.71Q115.67 14.21 116.36 13.01Q117.05 11.80 118.27 11.12Q119.49 10.43 121.00 10.43L121.00 10.43Q122.22 10.43 122.89 10.96Q123.56 11.49 123.56 12.45L123.56 12.45ZM120.62 11.77Q119.78 11.77 119.09 12.59Q118.40 13.40 118.15 14.63L118.15 14.63Q119.74 14.56 120.62 14.04Q121.49 13.51 121.49 12.61L121.49 12.61Q121.49 12.24 121.25 12.01Q121.02 11.77 120.62 11.77L120.62 11.77ZM128.53 19.18Q126.83 19.18 125.85 18.24Q124.88 17.30 124.88 15.64L124.88 15.64Q124.88 14.15 125.57 12.96Q126.25 11.77 127.45 11.10Q128.65 10.43 130.13 10.43L130.13 10.43Q131.21 10.43 131.84 10.82Q132.48 11.20 132.48 11.84L132.48 11.84Q132.48 12.38 132.10 12.73Q131.73 13.08 131.14 13.08L131.14 13.08Q130.58 13.08 130.11 12.78Q129.64 12.47 129.36 11.90L129.36 11.90Q128.76 12.14 128.28 12.70Q127.79 13.26 127.52 14.04Q127.25 14.83 127.25 15.68L127.25 15.68Q127.25 16.76 127.62 17.35Q127.99 17.93 128.66 17.93L128.66 17.93Q129.44 17.93 130.00 17.31Q130.55 16.69 130.59 15.79L130.59 15.79Q131.32 15.79 131.71 16.06Q132.09 16.32 132.09 16.86L132.09 16.86Q132.09 17.49 131.61 18.02Q131.14 18.55 130.32 18.87Q129.50 19.18 128.53 19.18L128.53 19.18ZM138.81 11.17Q139.29 11.17 139.47 11.32Q139.65 11.47 139.65 11.84L139.65 11.84Q139.65 12.19 139.43 12.68L139.43 12.68Q138.88 12.52 138.14 12.52L138.14 12.52L137.84 12.52Q137.47 13.82 137.22 14.99Q136.98 16.17 136.96 17.35L136.96 17.35L137.62 18.45Q137.23 18.80 136.77 18.99Q136.32 19.18 135.90 19.18L135.90 19.18Q135.27 19.18 134.90 18.85Q134.54 18.52 134.54 17.63L134.54 17.63Q134.54 16.95 134.72 16.09Q134.89 15.22 135.21 13.96L135.21 13.96L135.49 12.78Q135.13 12.81 134.95 12.81L134.95 12.81Q134.47 12.81 134.29 12.66Q134.11 12.52 134.11 12.15L134.11 12.15Q134.11 11.75 134.33 11.30L134.33 11.30Q134.85 11.47 135.63 11.47L135.63 11.47L135.72 11.47L135.72 11.38Q135.72 10.64 135.45 9.90L135.45 9.90Q135.86 9.52 136.41 9.29Q136.96 9.06 137.52 9.06L137.52 9.06Q138.04 9.06 138.26 9.28Q138.47 9.51 138.47 10.02L138.47 10.02Q138.47 10.35 138.24 11.20L138.24 11.20Q138.63 11.17 138.81 11.17L138.81 11.17ZM142.80 9.49Q142.23 9.49 141.87 9.22Q141.51 8.95 141.51 8.47L141.51 8.47Q141.51 7.88 142.02 7.51Q142.52 7.14 143.15 7.14L143.15 7.14Q143.72 7.14 144.08 7.41Q144.44 7.69 144.44 8.15L144.44 8.15Q144.44 8.74 143.96 9.11Q143.47 9.49 142.80 9.49L142.80 9.49ZM141.79 19.18Q141.08 19.18 140.75 18.82Q140.42 18.47 140.42 17.74L140.42 17.74Q140.42 17.18 140.68 15.83Q140.94 14.48 141.43 12.29L141.43 12.29L140.71 11.30Q141.25 10.91 141.86 10.67Q142.48 10.43 143.01 10.43L143.01 10.43Q143.53 10.43 143.75 10.65Q143.96 10.86 143.96 11.37L143.96 11.37Q143.96 11.56 143.64 12.92L143.64 12.92Q143.28 14.43 143.05 15.58Q142.83 16.72 142.83 17.54L142.83 17.54Q142.83 18.33 143.19 18.61L143.19 18.61Q142.53 19.18 141.79 19.18L141.79 19.18ZM149.21 19.18Q148.11 19.18 147.28 18.73Q146.45 18.27 146.01 17.44Q145.56 16.60 145.56 15.50L145.56 15.50Q145.56 14.03 146.22 12.87Q146.87 11.72 148.05 11.07Q149.23 10.43 150.71 10.43L150.71 10.43Q151.24 10.43 151.75 10.54L151.75 10.54Q151.90 10.98 151.89 11.51L151.89 11.51Q150.67 11.51 149.77 12.04Q148.88 12.57 148.40 13.49Q147.92 14.41 147.92 15.55L147.92 15.55Q147.92 16.74 148.35 17.34Q148.78 17.93 149.55 17.93L149.55 17.93Q150.53 17.93 151.19 17.14Q151.84 16.35 152.00 14.99L152.00 14.99Q150.92 14.36 150.92 13.19L150.92 13.19Q150.92 12.46 151.36 11.96Q151.80 11.47 152.45 11.47L152.45 11.47Q153.20 11.47 153.66 12.08Q154.11 12.70 154.11 13.73L154.11 13.73Q154.11 15.23 153.46 16.49Q152.81 17.74 151.68 18.46Q150.56 19.18 149.21 19.18L149.21 19.18ZM157.23 19.18Q156.52 19.18 156.19 18.82Q155.86 18.45 155.86 17.74L155.86 17.74Q155.86 17.16 156.18 15.42Q156.51 13.68 156.87 12.14L156.87 12.14L156.18 11.19Q156.70 10.85 157.28 10.65Q157.86 10.44 158.40 10.44L158.40 10.44Q158.91 10.44 159.15 10.68Q159.39 10.92 159.39 11.40L159.39 11.40Q159.39 11.76 159.29 12.17Q159.19 12.59 159.03 12.92L159.03 12.92L159.17 12.99Q160.62 10.43 162.92 10.43L162.92 10.43Q163.80 10.43 164.23 10.86Q164.65 11.30 164.65 12.19L164.65 12.19Q164.65 12.70 164.56 13.23Q164.46 13.76 164.23 14.69L164.23 14.69Q164.01 15.60 163.88 16.25Q163.76 16.91 163.76 17.54L163.76 17.54Q163.76 18.26 164.01 18.61L164.01 18.61Q163.39 19.18 162.72 19.18L162.72 19.18Q162.01 19.18 161.69 18.82Q161.36 18.45 161.36 17.74L161.36 17.74Q161.36 17.18 161.48 16.58Q161.60 15.97 161.84 15.02L161.84 15.02Q162.04 14.25 162.13 13.82Q162.22 13.38 162.22 13.03L162.22 13.03Q162.22 12.24 161.59 12.24L161.59 12.24Q160.89 12.24 160.10 12.98Q159.32 13.72 158.79 14.95Q158.27 16.17 158.27 17.54L158.27 17.54Q158.27 18.26 158.52 18.61L158.52 18.61Q157.88 19.18 157.23 19.18L157.23 19.18Z"></path></g><defs data-v-fde0c5aa=""><linearGradient data-v-fde0c5aa="" gradientTransform="rotate(25)" id="2081292f-a3d6-4dcb-b4ec-cc0ea5ba6270" x1="0%" y1="0%" x2="100%" y2="0%"><stop data-v-fde0c5aa="" offset="0%" stop-color="#4E1A70" stop-opacity="1"></stop><stop data-v-fde0c5aa="" offset="100%" stop-color="#2B4CF2" stop-opacity="1"></stop></linearGradient></defs><g data-v-fde0c5aa="" id="25687a31-0d51-47c4-a7a1-8ec5cada5db4" stroke="none" fill="url(#2081292f-a3d6-4dcb-b4ec-cc0ea5ba6270)" transform="matrix(1.027190219289391,0,0,1.027190219289391,40,133.56495649136974)"><path d="M16 19.586l7.496-12.954H8.504zM7.496 12.414L0 25.368h14.992zM24.504 12.414l-7.496 12.954H32z"></path></g><!----></svg>